<svg xmlns="http://www.w3.org/2000/svg" xmlns:xlink="http://www.w3.org/1999/xlink" xmlns:lucid="lucid" width="2190.99" height="1372.5"><g transform="translate(390.4878171336766 700.5)" lucid:page-tab-id="0_0"><path d="M-500-1000h2500v2000H-500z" fill="#fff"/><path d="M191.5-365.22c0 22.1-17.9 40-40 40-22.08 0-40-17.9-40-40s17.92-40 40-40c22.1 0 40 17.9 40 40zM-28.5 69.78c22.1 0 40 17.9 40 40s-17.9 40-40 40h-80c-22.08 0-40-17.9-40-40s17.92-40 40-40z" stroke="#3a414a" fill="#fff"/><use xlink:href="#a" transform="matrix(1,0,0,1,-143.48781713367657,74.7807421627279) translate(12.746913580246918 39.65277777777778)"/><path d="M-68 562.1l.08.87.2.84.33.8.46.75.56.65.66.56.74.45.8.34.83.2.88.07h37.1v1H-62.5l-1-.06-1-.24-.94-.4-.87-.53-.78-.66-.67-.76-.53-.87-.4-.95-.23-1-.1-1v-186.7h1zm0-208h-1V150.77h1z" stroke="#3a414a" stroke-width=".05" fill="#3a414a"/><path d="M-68 150.8h-1v-.52h1z" fill="#3a414a"/><path d="M-67.96 150.82H-69v-.56h1.04zm-1-.5v.45h.95v-.46z" stroke="#3a414a" stroke-width=".05" fill="#3a414a"/><path d="M-10.6 568.1l-14.27 4.65v-9.27z" fill="#3a414a"/><path d="M-9 568.1l-16.37 5.34V562.8zm-15.37 3.96l12.15-3.95-12.15-3.93z" stroke="#3a414a" stroke-width=".05" fill="#3a414a"/><use xlink:href="#b" transform="matrix(1,0,0,1,-148.31497762750374,354.09052054245143) translate(0 14.222222222222223)"/><use xlink:href="#c" transform="matrix(1,0,0,1,-148.31497762750374,354.09052054245143) translate(95.65432098765433 14.222222222222223)"/><use xlink:href="#d" transform="matrix(1,0,0,1,-148.31497762750374,354.09052054245143) translate(138.0246913580247 14.222222222222223)"/><path d="M111.5 528.1c22.1 0 40 17.92 40 40 0 22.1-17.9 40-40 40h-80c-22.08 0-40-17.9-40-40 0-22.08 17.92-40 40-40z" stroke="#3a414a" fill="#fff"/><use xlink:href="#e" transform="matrix(1,0,0,1,-3.4878171336765718,533.1140754960613) translate(10.709876543209873 39.65277777777778)"/><path d="M-328.5 369.78c0 11.05-8.94 20-20 20-11.03 0-20-8.95-20-20 0-11.04 8.97-20 20-20 11.06 0 20 8.96 20 20z" stroke="#3a414a"/><path d="M-259.9 299.44l-5.93 13.35-4.76 9.62-4.06 7.4-3.58 5.93-3.22 4.86-2.94 4.06-2.73 3.44-2.54 2.95-2.4 2.55-2.26 2.22-2.16 1.95-2.07 1.72-2 1.5-1.95 1.37-1.9 1.2-1.84 1.07-1.82.95-1.8.83-1.77.75-1.77.66-1.76.57-1.76.5-1.78.42-1.8.34-1.8.27-1.85.2-1.88.1-1.43.04-.02-1 1.4-.03 1.85-.12 1.8-.18 1.77-.27 1.75-.33 1.74-.4 1.73-.5 1.72-.55 1.73-.65 1.74-.73 1.75-.83 1.78-.94 1.82-1.05 1.86-1.17 1.9-1.32 1.98-1.5 2.05-1.7 2.14-1.9 2.23-2.2 2.36-2.52 2.5-2.92 2.7-3.4 2.92-4.03 3.2-4.82 3.56-5.87 4.04-7.37 4.75-9.6 5.9-13.3 17.65-48.72h1.06zm95.08-186.18l-.14.05-1.73.74-1.75.83-1.78.93-1.82 1.05-1.85 1.18-1.9 1.33-1.98 1.5-2.05 1.7-2.13 1.9-2.24 2.2-2.37 2.52-2.5 2.92-2.7 3.4-2.92 4.03-3.2 4.82-3.55 5.88-4.05 7.38-4.75 9.6-5.9 13.3-8.52 21.66-9.72 26.84h-1.06l9.85-27.2 8.53-21.68 5.92-13.35 4.77-9.63 4.06-7.4 3.58-5.93 3.22-4.84 2.95-4.06 2.72-3.44 2.54-2.95 2.4-2.54 2.25-2.22 2.17-1.95 2.08-1.73 2-1.52 1.94-1.35 1.9-1.2 1.85-1.08 1.8-.95 1.8-.84 1.78-.75.15-.05z" stroke="#3a414a" stroke-width=".05" fill="#3a414a"/><path d="M-150.58 110.08l-13.16 7.2-1.72-9.1z" fill="#3a414a"/><path d="M-149 109.78l-15.1 8.26-1.98-10.46zm-14.38 6.73l11.2-6.12-12.66-1.63z" stroke="#3a414a" stroke-width=".05" fill="#3a414a"/><path d="M-327.48 370.28h-.57l.06-.48v-.52h.52z" fill="#3a414a"/><path d="M-327.45 370.3h-.63l.07-.5-.03-.54h.58zm-.53-1l.02.5-.06.46h.52v-.95z" stroke="#3a414a" stroke-width=".05" fill="#3a414a"/><use xlink:href="#f" transform="matrix(1,0,0,1,-278.71207778368716,229.00283165193528) translate(0 14.222222222222223)"/><use xlink:href="#g" transform="matrix(1,0,0,1,-278.71207778368716,229.00283165193528) translate(58.22222222222223 14.222222222222223)"/><path d="M634.63 114.28v1H423.7v-1zm-622.12-4v-1h226.8v1z" stroke="#3a414a" stroke-width=".05" fill="#3a414a"/><path d="M12.53 110.28h-.55l.03-.5v-.5h.53z" fill="#3a414a"/><path d="M12.55 110.3h-.6l.04-.5-.03-.54h.58zm-.53-1l.02.5-.03.46h.5v-.95z" stroke="#3a414a" stroke-width=".05" fill="#3a414a"/><path d="M649.4 114.78l-14.27 4.64v-9.28z" fill="#3a414a"/><path d="M651 114.78l-16.37 5.32v-10.64zm-15.37 3.95l12.15-3.95-12.15-3.95z" stroke="#3a414a" stroke-width=".05" fill="#3a414a"/><use xlink:href="#b" transform="matrix(1,0,0,1,239.31472760369655,101.61407549606118) translate(0 14.222222222222223)"/><use xlink:href="#h" transform="matrix(1,0,0,1,239.31472760369655,101.61407549606118) translate(95.65432098765433 14.222222222222223)"/><use xlink:href="#d" transform="matrix(1,0,0,1,239.31472760369655,101.61407549606118) translate(162.76543209876544 14.222222222222223)"/><path d="M829 52.28c34.53 0 62.5 27.98 62.5 62.5 0 34.52-27.97 62.5-62.5 62.5H714c-34.5 0-62.5-27.98-62.5-62.5 0-34.52 28-62.5 62.5-62.5z" stroke="#3a414a" fill="#fff"/><use xlink:href="#i" transform="matrix(1,0,0,1,656.5121828663359,57.28074216272785) translate(52.96296296296297 60.90277777777778)"/><path d="M-68 68.78h-1V-2.05h1zm0-92.17h-1v-54.93h1z" stroke="#3a414a" stroke-width=".05" fill="#3a414a"/><path d="M-68 69.28h-1v-.5h1z" fill="#3a414a"/><path d="M-67.96 69.3H-69v-.56h1.04zm-1-.5v.46h.95v-.47z" stroke="#3a414a" stroke-width=".05" fill="#3a414a"/><path d="M-63.85-78.83h-9.27l4.63-14.27z" fill="#3a414a"/><path d="M-63.16-78.33H-73.8l5.3-16.4zm-9.28-1h7.9l-3.95-12.15z" stroke="#3a414a" stroke-width=".05" fill="#3a414a"/><use xlink:href="#j" transform="matrix(1,0,0,1,-155.6730023188618,-23.385924503938764) translate(0 14.222222222222223)"/><use xlink:href="#k" transform="matrix(1,0,0,1,-155.6730023188618,-23.385924503938764) translate(66.02469135802471 14.222222222222223)"/><use xlink:href="#l" transform="matrix(1,0,0,1,-155.6730023188618,-23.385924503938764) translate(144.79012345679016 14.222222222222223)"/><path d="M-28.5-175.22c22.1 0 40 17.9 40 40s-17.9 40-40 40h-80c-22.08 0-40-17.9-40-40s17.92-40 40-40z" stroke="#3a414a" fill="#fff"/><use xlink:href="#m" transform="matrix(1,0,0,1,-143.48781713367657,-170.2192578372721) translate(8.400061728395054 26.52777777777778)"/><use xlink:href="#n" transform="matrix(1,0,0,1,-143.48781713367657,-170.2192578372721) translate(92.28895061728394 26.52777777777778)"/><use xlink:href="#o" transform="matrix(1,0,0,1,-143.48781713367657,-170.2192578372721) translate(130.49882716049382 26.52777777777778)"/><use xlink:href="#p" transform="matrix(1,0,0,1,-143.48781713367657,-170.2192578372721) translate(39.264259259259255 53.19444444444445)"/><use xlink:href="#q" transform="matrix(1,0,0,1,-143.48781713367657,-170.2192578372721) translate(82.47413580246914 53.19444444444445)"/><path d="M152.5 568.1h62.13" stroke="#3a414a" fill="none"/><path d="M152.53 568.6h-.55l.03-.48v-.5h.53z" stroke="#3a414a" stroke-width=".05" fill="#3a414a"/><path d="M229.4 568.1l-14.27 4.65v-9.27z" stroke="#3a414a" fill="#3a414a"/><path d="M351.5 528.1c22.1 0 40 17.92 40 40 0 22.1-17.9 40-40 40h-80c-22.08 0-40-17.9-40-40 0-22.08 17.92-40 40-40z" stroke="#3a414a" fill="#fff"/><use xlink:href="#r" transform="matrix(1,0,0,1,236.51218286632343,533.1140754960613) translate(0.3549382716049365 38.69444444444444)"/><path d="M392.5 568.1h42.13" stroke="#3a414a" fill="none"/><path d="M392.52 568.6h-.54l.03-.48v-.5h.52z" stroke="#3a414a" stroke-width=".05" fill="#3a414a"/><path d="M449.4 568.1l-14.27 4.65v-9.27z" stroke="#3a414a" fill="#3a414a"/><path d="M571.5 528.1c22.1 0 40 17.92 40 40 0 22.1-17.9 40-40 40h-80c-22.08 0-40-17.9-40-40 0-22.08 17.92-40 40-40z" stroke="#3a414a" fill="#fff"/><use xlink:href="#s" transform="matrix(1,0,0,1,456.5121828663234,533.1140754960613) translate(12.098765432098766 39.65277777777778)"/><path d="M612.5 568.1h62.13" stroke="#3a414a" fill="none"/><path d="M612.52 568.6H612l.03-.48v-.5h.52z" stroke="#3a414a" stroke-width=".05" fill="#3a414a"/><path d="M689.4 568.1l-14.27 4.65v-9.27z" stroke="#3a414a" fill="#3a414a"/><path d="M811.5 528.1c22.1 0 40 17.92 40 40 0 22.1-17.9 40-40 40h-80c-22.08 0-40-17.9-40-40 0-22.08 17.92-40 40-40z" stroke="#3a414a" fill="#fff"/><use xlink:href="#t" transform="matrix(1,0,0,1,696.5121828663234,533.1140754960613) translate(-3.209876543209873 39.44444444444444)"/><path d="M772 527.1h-1V314.5h1zm0-233.96h-1v-98.97h1z" stroke="#3a414a" stroke-width=".05" fill="#3a414a"/><path d="M772 527.6h-1v-.5h1z" fill="#3a414a"/><path d="M772.04 527.64H771v-.56h1.04zm-1-.5v.45h.95v-.47z" stroke="#3a414a" stroke-width=".05" fill="#3a414a"/><path d="M776.15 193.67h-9.27l4.63-14.27z" fill="#3a414a"/><path d="M776.84 194.17H766.2l5.3-16.4zm-9.27-1h7.9l-3.96-12.15z" stroke="#3a414a" stroke-width=".05" fill="#3a414a"/><use xlink:href="#u" transform="matrix(1,0,0,1,650.277614965139,293.1435019207325) translate(0 14.222222222222223)"/><use xlink:href="#v" transform="matrix(1,0,0,1,650.277614965139,293.1435019207325) translate(93.67901234567901 14.222222222222223)"/><use xlink:href="#w" transform="matrix(1,0,0,1,650.277614965139,293.1435019207325) translate(171.50617283950618 14.222222222222223)"/><path d="M941.1 115.28h-48.6v-1h48.6zm183.53 0h-32.7v-1h32.7z" stroke="#3a414a" stroke-width=".05" fill="#3a414a"/><path d="M892.52 115.28H892v-1h.52z" fill="#3a414a"/><path d="M892.55 115.3h-.58l.02-.52-.03-.52h.58zm-.52-1v.96h.47v-.95z" stroke="#3a414a" stroke-width=".05" fill="#3a414a"/><path d="M1139.4 114.78l-14.27 4.64v-9.28z" fill="#3a414a"/><path d="M1141 114.78l-16.37 5.32v-10.64zm-15.37 3.95l12.15-3.95-12.15-3.95z" stroke="#3a414a" stroke-width=".05" fill="#3a414a"/><use xlink:href="#x" transform="matrix(1,0,0,1,941.1046998573642,104.11407549606118) translate(0 14.222222222222223)"/><use xlink:href="#y" transform="matrix(1,0,0,1,941.1046998573642,104.11407549606118) translate(28.543209876543212 14.222222222222223)"/><use xlink:href="#z" transform="matrix(1,0,0,1,941.1046998573642,104.11407549606118) translate(84.74074074074075 14.222222222222223)"/><path d="M1436.4 115.28H1401v-1h35.4zm126.72 0h-37.96v-1h37.96z" stroke="#3a414a" stroke-width=".05" fill="#3a414a"/><path d="M1401 115.28h-.53l.03-.5-.02-.5h.53z" fill="#3a414a"/><path d="M1401.04 115.3h-.6l.04-.5-.02-.54h.58zm-.53-1l.03.5-.03.46h.5v-.95z" stroke="#3a414a" stroke-width=".05" fill="#3a414a"/><path d="M1577.88 114.78l-14.26 4.64v-9.28z" fill="#3a414a"/><path d="M1579.5 114.78l-16.38 5.32v-10.64zm-15.38 3.95l12.14-3.95-12.14-3.95z" stroke="#3a414a" stroke-width=".05" fill="#3a414a"/><use xlink:href="#A" transform="matrix(1,0,0,1,1436.391136842995,101.44740882939452) translate(0 17.77777777777778)"/><path d="M1695 69.78c24.85 0 45 20.15 45 45s-20.15 45-45 45h-70c-24.85 0-45-20.15-45-45s20.15-45 45-45z" stroke="#3a414a" fill="#fff"/><use xlink:href="#B" transform="matrix(1,0,0,1,1585,74.78074216272785) translate(51.60493827160494 45.27777777777778)"/><path d="M772 51.28h-1V-33.2h1zm0-105.8h-1v-68.6h1z" stroke="#3a414a" stroke-width=".05" fill="#3a414a"/><path d="M772 51.78h-1v-.5h1z" fill="#3a414a"/><path d="M772.04 51.8H771v-.56h1.04zm-1-.5v.46h.95v-.47z" stroke="#3a414a" stroke-width=".05" fill="#3a414a"/><path d="M776.15-123.62h-9.27l4.63-14.26z" fill="#3a414a"/><path d="M776.84-123.12H766.2l5.3-16.38zm-9.27-1h7.9l-3.96-12.14z" stroke="#3a414a" stroke-width=".05" fill="#3a414a"/><use xlink:href="#C" transform="matrix(1,0,0,1,707.9319359527557,-54.526295585302734) translate(0 14.222222222222223)"/><use xlink:href="#D" transform="matrix(1,0,0,1,707.9319359527557,-54.526295585302734) translate(58.17283950617284 14.222222222222223)"/><path d="M825.76-220c22.1 0 40 17.9 40 40s-17.9 40-40 40h-108.5c-22.08 0-40-17.9-40-40s17.92-40 40-40z" stroke="#3a414a" fill="#fff"/><use xlink:href="#E" transform="matrix(1,0,0,1,682.2682742995039,-215) translate(-4.820987654320973 39.44444444444444)"/><path d="M797.27-580c22.1 0 40 17.9 40 40s-17.9 40-40 40h-80c-22.1 0-40-17.9-40-40s17.9-40 40-40z" stroke="#3a414a" fill="#fff"/><use xlink:href="#F" transform="matrix(1,0,0,1,682.2682742994913,-575) translate(-0.941358024691354 38.111111111111114)"/><path d="M1660.5 52.9h-1v-582.23h1zM838.27-539.5v-1h606.84v1z" stroke="#3a414a" stroke-width=".05" fill="#3a414a"/><path d="M838.28-539.5h-.54l.03-.5-.02-.5h.53z" fill="#3a414a"/><path d="M838.3-539.48h-.6l.04-.5v-.54h.57zm-.52-1v.96h.48v-.96z" stroke="#3a414a" stroke-width=".05" fill="#3a414a"/><path d="M1660 67.66l-4.63-14.26h9.27z" fill="#3a414a"/><path d="M1660 69.28l-5.32-16.38h10.64zm-3.95-15.38l3.95 12.15 3.95-12.15z" stroke="#3a414a" stroke-width=".05" fill="#3a414a"/><use xlink:href="#G" transform="matrix(1,0,0,1,1445.1049110746117,-550.6666666666666) translate(0 14.222222222222223)"/><use xlink:href="#H" transform="matrix(1,0,0,1,1445.1049110746117,-550.6666666666666) translate(46.271604938271615 14.222222222222223)"/><use xlink:href="#I" transform="matrix(1,0,0,1,1445.1049110746117,-550.6666666666666) translate(82.71604938271605 14.222222222222223)"/><use xlink:href="#J" transform="matrix(1,0,0,1,1445.1049110746117,-550.6666666666666) translate(138.9135802469136 14.222222222222223)"/><path d="M1660.5 279.56h-1V223.9h1zm0-77h-1v-41.78h1z" stroke="#3a414a" stroke-width=".05" fill="#3a414a"/><path d="M1660.5 160.8h-1v-.52h1z" fill="#3a414a"/><path d="M1660.53 160.82h-1.06v-.56h1.06zm-1-.5v.45h.94v-.46z" stroke="#3a414a" stroke-width=".05" fill="#3a414a"/><path d="M1660 294.33l-4.63-14.27h9.27z" fill="#3a414a"/><path d="M1660 295.95l-5.32-16.4h10.64zm-3.95-15.4l3.95 12.16 3.95-12.14z" stroke="#3a414a" stroke-width=".05" fill="#3a414a"/><use xlink:href="#G" transform="matrix(1,0,0,1,1595.4567901234568,202.5648951070747) translate(0 14.222222222222223)"/><use xlink:href="#K" transform="matrix(1,0,0,1,1595.4567901234568,202.5648951070747) translate(46.271604938271615 14.222222222222223)"/><use xlink:href="#L" transform="matrix(1,0,0,1,1595.4567901234568,202.5648951070747) translate(61.08641975308643 14.222222222222223)"/><path d="M1700 296.45c22.1 0 40 17.9 40 40s-17.9 40-40 40h-80c-22.1 0-40-17.9-40-40s17.9-40 40-40z" stroke="#3a414a" fill="#fff"/><use xlink:href="#M" transform="matrix(1,0,0,1,1585,301.4474088293946) translate(15.432098765432094 39.65277777777778)"/><path d="M819.7 315.94l4.56 4.45 4.8 4.32 5.13 4.23 5.45 4.14 5.83 4.05 6.27 3.98 6.77 3.9 7.34 3.84 8 3.76 8.76 3.68 9.67 3.6 10.75 3.5 12.07 3.36 13.67 3.2 15.66 2.98 18.23 2.68 21.58 2.26 26.2 1.63 32.9.67 43.75-.97 377.02-37.78 68.83-4.45 46-1 .02 1-45.98 1-68.8 4.45-377.03 37.78-43.8.97-32.96-.66-26.24-1.63-21.63-2.25-18.27-2.7-15.72-2.98-13.7-3.2-12.12-3.4-10.8-3.5-9.7-3.6-8.82-3.7-8.03-3.78-7.36-3.85-6.8-3.9-6.3-4.02-5.88-4.08-5.5-4.16-5.14-4.26-4.85-4.36-4.57-4.48-2.03-2.16h1.37zm-47.1-118.47l.98 11.54 1.32 10.52 1.63 9.62 1.88 8.88 2.12 8.22 2.32 7.66 2.5 7.17 2.66 6.74 2.83 6.38 3 6.04 3.16 5.74 3.3 5.5 1.13 1.68h-1.2l-.76-1.15-3.35-5.54-3.18-5.78-3-6.07-2.86-6.4-2.7-6.78-2.5-7.2-2.32-7.7-2.12-8.28-1.9-8.9-1.63-9.68-1.3-10.55-.98-11.57-.14-3.35 1-.05z" stroke="#3a414a" stroke-width=".05" fill="#3a414a"/><path d="M1579.5 336.44l.02.5-.53.02-.03-1h.56z" fill="#3a414a"/><path d="M1579.52 336.44l.02.53h-.58l-.02-1.04h.62zm-.53-.46v.95h.5l-.03-.5.03-.46z" stroke="#3a414a" stroke-width=".05" fill="#3a414a"/><path d="M776.6 193.53l-9.27.26 4.23-14.4z" fill="#3a414a"/><path d="M777.3 194l-10.64.3 4.85-16.52zm-9.3-.73l7.9-.22-4.3-12.04zM458.83-50.58l17.53 32L489.5 3.18l10.98 16.56 9.65 13.3 8.7 11 8.04 9.3 7.5 8 7.08 6.94 6.74 6.08 6.47 5.36 6.26 4.77 6.1 4.23 5.95 3.78 5.86 3.4 5.8 3 5.73 2.72 5.72 2.4 5.72 2.14 5.76 1.87 5.82 1.63 5.9 1.4 6 1.13 6.15.9 6.3.67 6.5.4 6.27.14-.02 1-6.28-.13-6.55-.4-6.35-.68-6.18-.9-6.05-1.17-5.95-1.4-5.86-1.63-5.8-1.9-5.78-2.14-5.76-2.42-5.78-2.7-5.82-3.05-5.9-3.4-6-3.8-6.1-4.27-6.3-4.8-6.52-5.38-6.78-6.1-7.1-6.97-7.53-8.02-8.06-9.33-8.74-11.04-9.67-13.33-11-16.6-13.17-21.77-17.55-32.04-87-173.25h1.1zM211.7-364.5l6.2.9 6.03 1.17 5.94 1.4 5.86 1.63 5.8 1.88 5.77 2.15 5.76 2.42 5.78 2.72 5.83 3.05 5.9 3.4 5.98 3.8 6.13 4.27 6.3 4.77 6.5 5.4 6.78 6.1 7.1 6.96 7.54 8.02 8.05 9.34 8.74 11.03 9.66 13.33 11 16.6 5.73 9.45h-1.18l-5.4-8.9-10.98-16.57-9.65-13.3-8.72-11-8.03-9.3-7.5-8-7.07-6.94-6.75-6.1-6.48-5.35-6.26-4.75-6.1-4.24-5.96-3.78-5.86-3.4-5.78-3-5.74-2.72-5.73-2.4-5.73-2.13-5.76-1.88-5.82-1.62-5.9-1.38-6-1.15-6.14-.9-3.27-.35.12-1z" stroke="#3a414a" stroke-width=".05" fill="#3a414a"/><path d="M651.03 114.28l-.02.5.02.5h-.54l.02-1z" fill="#3a414a"/><path d="M651.06 114.26l-.02.52v.53h-.58l.02-1.05zm-.55.98l.5.02v-.95h-.47z" stroke="#3a414a" stroke-width=".05" fill="#3a414a"/><path d="M207.63-359.74l-14-5.4 14.5-3.86z" fill="#3a414a"/><path d="M208.1-359.03l-16.1-6.2 16.66-4.43zm-12.86-6.02l11.92 4.6.43-7.9z" stroke="#3a414a" stroke-width=".05" fill="#3a414a"/><use xlink:href="#N" transform="matrix(1,0,0,1,201.35416427182642,-244.68647565742333) translate(0 14.222222222222223)"/><use xlink:href="#O" transform="matrix(1,0,0,1,201.35416427182642,-244.68647565742333) translate(64.0493827160494 14.222222222222223)"/><use xlink:href="#P" transform="matrix(1,0,0,1,201.35416427182642,-244.68647565742333) translate(113.43209876543212 14.222222222222223)"/><use xlink:href="#Q" transform="matrix(1,0,0,1,201.35416427182642,-244.68647565742333) translate(191.30864197530866 14.222222222222223)"/><use xlink:href="#R" transform="matrix(1,0,0,1,201.35416427182642,-244.68647565742333) translate(223.75308641975312 14.222222222222223)"/><use xlink:href="#S" transform="matrix(1,0,0,1,201.35416427182642,-244.68647565742333) translate(270.07407407407413 14.222222222222223)"/><path d="M171.5-365.22c0 11.05-8.94 20-20 20-11.03 0-20-8.95-20-20 0-11.04 8.97-20 20-20 11.06 0 20 8.96 20 20z" stroke="#3a414a"/><path d="M591.5-674a6 6 0 0 1 6-6H1774a6 6 0 0 1 6 6V403.78a6 6 0 0 1-6 6H597.5a6 6 0 0 1-6-6z" stroke="#3a414a" fill-opacity="0"/><path d="M1245.76-379.22a6 6 0 0 1 6-6h228a6 6 0 0 1 6 6v48a6 6 0 0 1-6 6h-228a6 6 0 0 1-6-6z" fill="none"/><use xlink:href="#T" transform="matrix(1,0,0,1,1245.7560914331552,-385.21925783727215) translate(20.679012345679013 34.44444444444444)"/><use xlink:href="#U" transform="matrix(1,0,0,1,1245.7560914331552,-385.21925783727215) translate(131.66666666666669 34.44444444444444)"/><path d="M-68.48-176.22l.18-8.56.56-8.9.92-8.78 1.27-8.6 1.6-8.45 1.96-8.28 2.26-8.1 2.57-7.9 2.86-7.7 3.14-7.48 3.42-7.27 3.7-7.05 3.92-6.8 4.17-6.58 4.4-6.33 4.6-6.07 4.82-5.82 5-5.55 5.2-5.3 5.37-5.05 5.54-4.77 5.7-4.5 5.83-4.25 6-3.98 6.13-3.7 6.26-3.46 6.4-3.18 6.53-2.9 6.67-2.65 6.8-2.36 6.94-2.1 7.1-1.8 7.2-1.55 7.38-1.25 7.53-.95 3.2-.27" stroke="#3a414a" stroke-linejoin="round" fill="none"/><path d="M-67.98-176.22v.5h-1v-.53z" stroke="#3a414a" stroke-width=".05" fill="#3a414a"/><path d="M109.4-365.14l-14.04 5.28-.43-9.26z" stroke="#3a414a" fill="#3a414a"/><path d="M797.27-400c22.1 0 40 17.9 40 40s-17.9 40-40 40h-80c-22.1 0-40-17.9-40-40s17.9-40 40-40z" stroke="#3a414a" fill="#fff"/><g><use xlink:href="#V" transform="matrix(1,0,0,1,682.2682742995039,-395) translate(-4.876543209876544 39.44444444444444)"/></g><path d="M757.27-401v-82.12" stroke="#3a414a" fill="none"/><path d="M757.77-400.5h-1v-.5h1z" stroke="#3a414a" stroke-width=".05" fill="#3a414a"/><path d="M757.27-497.88l4.63 14.26h-9.27z" stroke="#3a414a" fill="#3a414a"/><path d="M765.76-221v-82.12" stroke="#3a414a" fill="none"/><path d="M766.26-220.5h-1v-.5h1z" stroke="#3a414a" stroke-width=".05" fill="#3a414a"/><path d="M765.76-317.88l4.63 14.26h-9.28z" stroke="#3a414a" fill="#3a414a"/><path d="M1360 74.78c22.1 0 40 17.9 40 40s-17.9 40-40 40h-178.5c-22.08 0-40-17.9-40-40s17.92-40 40-40z" stroke="#3a414a" fill="#fff"/><g><use xlink:href="#W" transform="matrix(1,0,0,1,1146.512182866336,79.78074216272785) translate(7.370370370370395 39.65277777777778)"/></g><path d="M1360 260c22.1 0 40 17.9 40 40s-17.9 40-40 40h-178.5c-22.08 0-40-17.9-40-40s17.92-40 40-40z" stroke="#3a414a" fill="#fff"/><g><use xlink:href="#X" transform="matrix(1,0,0,1,1146.512182866336,265) translate(86.50617283950618 39.65277777777778)"/></g><path d="M1271.26 243.12h-1v-33.07h1zm0-59.74h-1v-27.6h1z" stroke="#3a414a" stroke-width=".05" fill="#3a414a"/><path d="M1271.26 155.8h-1v-.52h1z" fill="#3a414a"/><path d="M1271.28 155.82h-1.05v-.56h1.05zm-1-.5v.45h.95v-.46z" stroke="#3a414a" stroke-width=".05" fill="#3a414a"/><path d="M1270.76 257.88l-4.64-14.26h9.27z" fill="#3a414a"/><path d="M1270.76 259.5l-5.33-16.38h10.65zm-3.95-15.38l3.96 12.14 3.94-12.14z" stroke="#3a414a" stroke-width=".05" fill="#3a414a"/><g><use xlink:href="#Y" transform="matrix(1,0,0,1,1141.4042395380206,183.38420278914478) translate(0 17.77777777777778)"/><use xlink:href="#Z" transform="matrix(1,0,0,1,1141.4042395380206,183.38420278914478) translate(78.76543209876543 17.77777777777778)"/><use xlink:href="#aa" transform="matrix(1,0,0,1,1141.4042395380206,183.38420278914478) translate(181.11111111111111 17.77777777777778)"/></g><path d="M146.53-446.14l1 .24.93.4.87.52.78.66.67.78.53.87.4.94.23 1 .08 1v17.63h-1v-17.6l-.06-.88-.2-.84-.33-.8-.44-.73-.56-.66-.66-.57-.73-.45-.8-.33-.83-.2-.88-.07h-527.97l-.88.07-.84.2-.78.33-.74.45-.66.56-.56.65-.45.73-.32.8-.2.84-.07.88V663.98l.08.88.2.84.33.8.46.73.56.66.66.55.74.45.8.33.83.2.88.07h1647.2l.9-.07.82-.2.8-.33.74-.45.64-.56.56-.67.45-.73.33-.8.2-.84.08-.88V341h1v323.02l-.08 1-.24 1-.4.93-.52.87-.67.78-.77.66-.87.53-.93.38-1 .24-1 .08H-382.5l-1-.08-1-.24-.94-.4-.87-.52-.78-.66-.67-.78-.53-.87-.4-.94-.23-.98-.1-1V-439.74l.1-1 .23-1 .4-.93.52-.87.67-.78.77-.66.86-.53.94-.4 1-.24 1-.08h528.03z" stroke="#3a414a" stroke-width=".05" fill="#3a414a"/><path d="M1271.26 341h-1v-.5h1z" fill="#3a414a"/><path d="M1271.28 341.04h-1.05v-.56h1.05zm-1-.52v.47h.95v-.48z" stroke="#3a414a" stroke-width=".05" fill="#3a414a"/><path d="M151.5-407.34l-4.62-14.26h9.27z" fill="#3a414a"/><path d="M151.5-405.72l-5.3-16.38h10.64zm-3.94-15.38l3.95 12.14 3.96-12.14z" stroke="#3a414a" stroke-width=".05" fill="#3a414a"/><defs><path fill="#3a414a" d="M185-189c-5-48-123-54-124 2 14 75 158 14 163 119 3 78-121 87-175 55-17-10-28-26-33-46l33-7c5 56 141 63 141-1 0-78-155-14-162-118-5-82 145-84 179-34 5 7 8 16 11 25" id="ab"/><path fill="#3a414a" d="M30 0v-248h187v28H63v79h144v27H63v87h162V0H30" id="ac"/><path fill="#3a414a" d="M30 0v-248h33v221h125V0H30" id="ad"/><path fill="#3a414a" d="M63-220v92h138v28H63V0H30v-248h175v28H63" id="ae"/><path fill="#3a414a" d="M-5 72V49h209v23H-5" id="af"/><path fill="#3a414a" d="M127-220V0H93v-220H8v-28h204v28h-85" id="ag"/><g id="a"><use transform="matrix(0.06172839506172839,0,0,0.06172839506172839,0,0)" xlink:href="#ab"/><use transform="matrix(0.06172839506172839,0,0,0.06172839506172839,14.814814814814813,0)" xlink:href="#ac"/><use transform="matrix(0.06172839506172839,0,0,0.06172839506172839,29.629629629629626,0)" xlink:href="#ad"/><use transform="matrix(0.06172839506172839,0,0,0.06172839506172839,41.9753086419753,0)" xlink:href="#ae"/><use transform="matrix(0.06172839506172839,0,0,0.06172839506172839,55.49382716049382,0)" xlink:href="#af"/><use transform="matrix(0.06172839506172839,0,0,0.06172839506172839,67.8395061728395,0)" xlink:href="#ag"/><use transform="matrix(0.06172839506172839,0,0,0.06172839506172839,81.35802469135803,0)" xlink:href="#ac"/><use transform="matrix(0.06172839506172839,0,0,0.06172839506172839,96.17283950617283,0)" xlink:href="#ab"/><use transform="matrix(0.06172839506172839,0,0,0.06172839506172839,110.98765432098764,0)" xlink:href="#ag"/></g><path fill="#333" d="M24 0v-248h195v40H76v63h132v40H76v65h150V0H24" id="ah"/><path fill="#333" d="M25 0v-261h50V0H25" id="ai"/><path fill="#333" d="M185-48c-13 30-37 53-82 52C43 2 14-33 14-96s30-98 90-98c62 0 83 45 84 108H66c0 31 8 55 39 56 18 0 30-7 34-22zm-45-69c5-46-57-63-70-21-2 6-4 13-4 21h74" id="aj"/><path fill="#333" d="M190-63c-7 42-38 67-86 67-59 0-84-38-90-98-12-110 154-137 174-36l-49 2c-2-19-15-32-35-32-30 0-35 28-38 64-6 74 65 87 74 30" id="ak"/><path fill="#333" d="M115-3C79 11 28 4 28-45v-112H4v-33h27l15-45h31v45h36v33H77v99c-1 23 16 31 38 25v30" id="al"/><path fill="#333" d="M135-150c-39-12-60 13-60 57V0H25l-1-190h47c2 13-1 29 3 40 6-28 27-53 61-41v41" id="am"/><path fill="#333" d="M110-194c64 0 96 36 96 99 0 64-35 99-97 99-61 0-95-36-95-99 0-62 34-99 96-99zm-1 164c35 0 45-28 45-65 0-40-10-65-43-65-34 0-45 26-45 65 0 36 10 65 43 65" id="an"/><path fill="#333" d="M88-194c31-1 46 15 58 34l-1-101h50l1 261h-48c-2-10 0-23-3-31C134-8 116 4 84 4 32 4 16-41 15-95c0-56 19-97 73-99zm17 164c33 0 40-30 41-66 1-37-9-64-41-64s-38 30-39 65c0 43 13 65 39 65" id="ao"/><path fill="#333" d="M137-138c1-29-70-34-71-4 15 46 118 7 119 86 1 83-164 76-172 9l43-7c4 19 20 25 44 25 33 8 57-30 24-41C81-84 22-81 20-136c-2-80 154-74 161-7" id="ap"/><g id="b"><use transform="matrix(0.04938271604938272,0,0,0.04938271604938272,0,0)" xlink:href="#ah"/><use transform="matrix(0.04938271604938272,0,0,0.04938271604938272,11.851851851851853,0)" xlink:href="#ai"/><use transform="matrix(0.04938271604938272,0,0,0.04938271604938272,16.790123456790127,0)" xlink:href="#aj"/><use transform="matrix(0.04938271604938272,0,0,0.04938271604938272,26.666666666666668,0)" xlink:href="#ak"/><use transform="matrix(0.04938271604938272,0,0,0.04938271604938272,36.543209876543216,0)" xlink:href="#al"/><use transform="matrix(0.04938271604938272,0,0,0.04938271604938272,42.41975308641976,0)" xlink:href="#am"/><use transform="matrix(0.04938271604938272,0,0,0.04938271604938272,49.33333333333334,0)" xlink:href="#an"/><use transform="matrix(0.04938271604938272,0,0,0.04938271604938272,60.14814814814817,0)" xlink:href="#ao"/><use transform="matrix(0.04938271604938272,0,0,0.04938271604938272,70.96296296296298,0)" xlink:href="#aj"/><use transform="matrix(0.04938271604938272,0,0,0.04938271604938272,80.83950617283952,0)" xlink:href="#ap"/></g><path fill="#333" d="M175 0L67-191c6 58 2 128 3 191H24v-248h59L193-55c-6-58-2-129-3-193h46V0h-61" id="aq"/><path fill="#333" d="M140-251c80 0 125 45 125 126S219 4 139 4C58 4 15-44 15-125s44-126 125-126zm-1 214c52 0 73-35 73-88 0-50-21-86-72-86-52 0-73 35-73 86s22 88 72 88" id="ar"/><path fill="#333" d="M136-208V0H84v-208H4v-40h212v40h-80" id="as"/><g id="c"><use transform="matrix(0.04938271604938272,0,0,0.04938271604938272,0,0)" xlink:href="#aq"/><use transform="matrix(0.04938271604938272,0,0,0.04938271604938272,12.790123456790125,0)" xlink:href="#ar"/><use transform="matrix(0.04938271604938272,0,0,0.04938271604938272,26.617283950617285,0)" xlink:href="#as"/></g><path fill="#333" d="M135-194c87-1 58 113 63 194h-50c-7-57 23-157-34-157-59 0-34 97-39 157H25l-1-190h47c2 12-1 28 3 38 12-26 28-41 61-42" id="at"/><g id="d"><use transform="matrix(0.04938271604938272,0,0,0.04938271604938272,0,0)" xlink:href="#an"/><use transform="matrix(0.04938271604938272,0,0,0.04938271604938272,10.814814814814815,0)" xlink:href="#at"/></g><path fill="#3a414a" d="M205 0l-28-72H64L36 0H1l101-248h38L239 0h-34zm-38-99l-47-123c-12 45-31 82-46 123h93" id="au"/><path fill="#3a414a" d="M137-103V0h-34v-103L8-248h37l75 118 75-118h37" id="av"/><path fill="#3a414a" d="M212-179c-10-28-35-45-73-45-59 0-87 40-87 99 0 60 29 101 89 101 43 0 62-24 78-52l27 14C228-24 195 4 139 4 59 4 22-46 18-125c-6-104 99-153 187-111 19 9 31 26 39 46" id="aw"/><path fill="#3a414a" d="M240 0l2-218c-23 76-54 145-80 218h-23L58-218 59 0H30v-248h44l77 211c21-75 51-140 76-211h43V0h-30" id="ax"/><g id="e"><use transform="matrix(0.06172839506172839,0,0,0.06172839506172839,0,0)" xlink:href="#ab"/><use transform="matrix(0.06172839506172839,0,0,0.06172839506172839,14.814814814814813,0)" xlink:href="#ag"/><use transform="matrix(0.06172839506172839,0,0,0.06172839506172839,26.666666666666664,0)" xlink:href="#au"/><use transform="matrix(0.06172839506172839,0,0,0.06172839506172839,39.81481481481481,0)" xlink:href="#av"/><use transform="matrix(0.06172839506172839,0,0,0.06172839506172839,54.62962962962962,0)" xlink:href="#af"/><use transform="matrix(0.06172839506172839,0,0,0.06172839506172839,66.9753086419753,0)" xlink:href="#aw"/><use transform="matrix(0.06172839506172839,0,0,0.06172839506172839,82.96296296296296,0)" xlink:href="#au"/><use transform="matrix(0.06172839506172839,0,0,0.06172839506172839,97.77777777777777,0)" xlink:href="#ad"/><use transform="matrix(0.06172839506172839,0,0,0.06172839506172839,110.12345679012346,0)" xlink:href="#ax"/></g><path fill="#333" d="M24-248c93 1 206-16 204 79-1 75-69 88-152 82V0H24v-248zm52 121c47 0 100 7 100-41 0-47-54-39-100-39v80" id="ay"/><path fill="#333" d="M231 0h-52l-39-155L100 0H48L-1-190h46L77-45c9-52 24-97 36-145h53l37 145 32-145h46" id="az"/><g id="f"><use transform="matrix(0.04938271604938272,0,0,0.04938271604938272,0,0)" xlink:href="#ay"/><use transform="matrix(0.04938271604938272,0,0,0.04938271604938272,11.851851851851853,0)" xlink:href="#an"/><use transform="matrix(0.04938271604938272,0,0,0.04938271604938272,22.666666666666668,0)" xlink:href="#az"/><use transform="matrix(0.04938271604938272,0,0,0.04938271604938272,36.49382716049383,0)" xlink:href="#aj"/><use transform="matrix(0.04938271604938272,0,0,0.04938271604938272,46.370370370370374,0)" xlink:href="#am"/></g><g id="g"><use transform="matrix(0.04938271604938272,0,0,0.04938271604938272,0,0)" xlink:href="#an"/><use transform="matrix(0.04938271604938272,0,0,0.04938271604938272,10.814814814814815,0)" xlink:href="#at"/></g><path fill="#333" d="M133-34C117-15 103 5 69 4 32 3 11-16 11-54c-1-60 55-63 116-61 1-26-3-47-28-47-18 1-26 9-28 27l-52-2c7-38 36-58 82-57s74 22 75 68l1 82c-1 14 12 18 25 15v27c-30 8-71 5-69-32zm-48 3c29 0 43-24 42-57-32 0-66-3-65 30 0 17 8 27 23 27" id="aA"/><path fill="#333" d="M123 10C108 53 80 86 19 72V37c35 8 53-11 59-39L3-190h52l48 148c12-52 28-100 44-148h51" id="aB"/><g id="h"><use transform="matrix(0.04938271604938272,0,0,0.04938271604938272,0,0)" xlink:href="#aA"/><use transform="matrix(0.04938271604938272,0,0,0.04938271604938272,9.876543209876544,0)" xlink:href="#ai"/><use transform="matrix(0.04938271604938272,0,0,0.04938271604938272,14.814814814814817,0)" xlink:href="#am"/><use transform="matrix(0.04938271604938272,0,0,0.04938271604938272,21.7283950617284,0)" xlink:href="#aj"/><use transform="matrix(0.04938271604938272,0,0,0.04938271604938272,31.60493827160494,0)" xlink:href="#aA"/><use transform="matrix(0.04938271604938272,0,0,0.04938271604938272,41.48148148148149,0)" xlink:href="#ao"/><use transform="matrix(0.04938271604938272,0,0,0.04938271604938272,52.2962962962963,0)" xlink:href="#aB"/></g><path fill="#3a414a" d="M190 0L58-211 59 0H30v-248h39L202-35l-2-213h31V0h-41" id="aC"/><path fill="#3a414a" d="M209 0H11v-25l151-195H24v-28h176v25L50-27h159V0" id="aD"/><path fill="#3a414a" d="M33 0v-248h34V0H33" id="aE"/><path fill="#3a414a" d="M143 4C61 4 22-44 18-125c-5-107 100-154 193-111 17 8 29 25 37 43l-32 9c-13-25-37-40-76-40-61 0-88 39-88 99 0 61 29 100 91 101 35 0 62-11 79-27v-45h-74v-28h105v86C228-13 192 4 143 4" id="aF"/><g id="i"><use transform="matrix(0.06172839506172839,0,0,0.06172839506172839,0,0)" xlink:href="#au"/><use transform="matrix(0.06172839506172839,0,0,0.06172839506172839,14.814814814814813,0)" xlink:href="#aC"/><use transform="matrix(0.06172839506172839,0,0,0.06172839506172839,30.80246913580247,0)" xlink:href="#au"/><use transform="matrix(0.06172839506172839,0,0,0.06172839506172839,45.61728395061728,0)" xlink:href="#ad"/><use transform="matrix(0.06172839506172839,0,0,0.06172839506172839,56.29629629629629,0)" xlink:href="#av"/><use transform="matrix(0.06172839506172839,0,0,0.06172839506172839,71.1111111111111,0)" xlink:href="#aD"/><use transform="matrix(0.06172839506172839,0,0,0.06172839506172839,84.62962962962962,0)" xlink:href="#aE"/><use transform="matrix(0.06172839506172839,0,0,0.06172839506172839,90.80246913580245,0)" xlink:href="#aC"/><use transform="matrix(0.06172839506172839,0,0,0.06172839506172839,106.79012345679011,0)" xlink:href="#aF"/></g><path fill="#333" d="M182-130c37 4 62 22 62 59C244 23 116-4 24 0v-248c84 5 203-23 205 63 0 31-19 50-47 55zM76-148c40-3 101 13 101-30 0-44-60-28-101-31v61zm0 110c48-3 116 14 116-37 0-48-69-32-116-35v72" id="aG"/><g id="j"><use transform="matrix(0.04938271604938272,0,0,0.04938271604938272,0,0)" xlink:href="#aG"/><use transform="matrix(0.04938271604938272,0,0,0.04938271604938272,12.790123456790125,0)" xlink:href="#aA"/><use transform="matrix(0.04938271604938272,0,0,0.04938271604938272,22.66666666666667,0)" xlink:href="#al"/><use transform="matrix(0.04938271604938272,0,0,0.04938271604938272,28.54320987654322,0)" xlink:href="#al"/><use transform="matrix(0.04938271604938272,0,0,0.04938271604938272,34.41975308641976,0)" xlink:href="#aj"/><use transform="matrix(0.04938271604938272,0,0,0.04938271604938272,44.296296296296305,0)" xlink:href="#am"/><use transform="matrix(0.04938271604938272,0,0,0.04938271604938272,51.209876543209894,0)" xlink:href="#aB"/></g><path fill="#333" d="M4 7l51-268h42L46 7H4" id="aH"/><g id="k"><use transform="matrix(0.04938271604938272,0,0,0.04938271604938272,0,0)" xlink:href="#ao"/><use transform="matrix(0.04938271604938272,0,0,0.04938271604938272,10.814814814814815,0)" xlink:href="#aj"/><use transform="matrix(0.04938271604938272,0,0,0.04938271604938272,20.69135802469136,0)" xlink:href="#aA"/><use transform="matrix(0.04938271604938272,0,0,0.04938271604938272,30.567901234567906,0)" xlink:href="#ao"/><use transform="matrix(0.04938271604938272,0,0,0.04938271604938272,41.38271604938272,0)" xlink:href="#aH"/><use transform="matrix(0.04938271604938272,0,0,0.04938271604938272,46.320987654320994,0)" xlink:href="#al"/><use transform="matrix(0.04938271604938272,0,0,0.04938271604938272,52.19753086419754,0)" xlink:href="#an"/><use transform="matrix(0.04938271604938272,0,0,0.04938271604938272,63.01234567901235,0)" xlink:href="#an"/></g><g id="l"><use transform="matrix(0.04938271604938272,0,0,0.04938271604938272,0,0)" xlink:href="#ai"/><use transform="matrix(0.04938271604938272,0,0,0.04938271604938272,4.938271604938272,0)" xlink:href="#an"/><use transform="matrix(0.04938271604938272,0,0,0.04938271604938272,15.753086419753087,0)" xlink:href="#az"/></g><path fill="#3a414a" d="M117-194c89-4 53 116 60 194h-32v-121c0-31-8-49-39-48C34-167 62-67 57 0H25l-1-190h30c1 10-1 24 2 32 11-22 29-35 61-36" id="aI"/><path fill="#3a414a" d="M85-194c31 0 48 13 60 33l-1-100h32l1 261h-30c-2-10 0-23-3-31C134-8 116 4 85 4 32 4 16-35 15-94c0-66 23-100 70-100zm9 24c-40 0-46 34-46 75 0 40 6 74 45 74 42 0 51-32 51-76 0-42-9-74-50-73" id="aJ"/><path fill="#3a414a" d="M24-231v-30h32v30H24zM24 0v-190h32V0H24" id="aK"/><path fill="#3a414a" d="M96-169c-40 0-48 33-48 73s9 75 48 75c24 0 41-14 43-38l32 2c-6 37-31 61-74 61-59 0-76-41-82-99-10-93 101-131 147-64 4 7 5 14 7 22l-32 3c-4-21-16-35-41-35" id="aL"/><path fill="#3a414a" d="M141-36C126-15 110 5 73 4 37 3 15-17 15-53c-1-64 63-63 125-63 3-35-9-54-41-54-24 1-41 7-42 31l-33-3c5-37 33-52 76-52 45 0 72 20 72 64v82c-1 20 7 32 28 27v20c-31 9-61-2-59-35zM48-53c0 20 12 33 32 33 41-3 63-29 60-74-43 2-92-5-92 41" id="aM"/><path fill="#3a414a" d="M59-47c-2 24 18 29 38 22v24C64 9 27 4 27-40v-127H5v-23h24l9-43h21v43h35v23H59v120" id="aN"/><path fill="#3a414a" d="M100-194c63 0 86 42 84 106H49c0 40 14 67 53 68 26 1 43-12 49-29l28 8c-11 28-37 45-77 45C44 4 14-33 15-96c1-61 26-98 85-98zm52 81c6-60-76-77-97-28-3 7-6 17-6 28h103" id="aO"/><g id="m"><use transform="matrix(0.06172839506172839,0,0,0.06172839506172839,0,0)" xlink:href="#aE"/><use transform="matrix(0.06172839506172839,0,0,0.06172839506172839,6.172839506172839,0)" xlink:href="#aI"/><use transform="matrix(0.06172839506172839,0,0,0.06172839506172839,18.51851851851852,0)" xlink:href="#aJ"/><use transform="matrix(0.06172839506172839,0,0,0.06172839506172839,30.864197530864196,0)" xlink:href="#aK"/><use transform="matrix(0.06172839506172839,0,0,0.06172839506172839,35.74074074074074,0)" xlink:href="#aL"/><use transform="matrix(0.06172839506172839,0,0,0.06172839506172839,46.85185185185185,0)" xlink:href="#aM"/><use transform="matrix(0.06172839506172839,0,0,0.06172839506172839,59.197530864197525,0)" xlink:href="#aN"/><use transform="matrix(0.06172839506172839,0,0,0.06172839506172839,65.37037037037037,0)" xlink:href="#aO"/></g><path fill="#3a414a" d="M114-163C36-179 61-72 57 0H25l-1-190h30c1 12-1 29 2 39 6-27 23-49 58-41v29" id="aP"/><g id="n"><use transform="matrix(0.06172839506172839,0,0,0.06172839506172839,0,0)" xlink:href="#aP"/><use transform="matrix(0.06172839506172839,0,0,0.06172839506172839,7.345679012345679,0)" xlink:href="#aO"/><use transform="matrix(0.06172839506172839,0,0,0.06172839506172839,19.691358024691358,0)" xlink:href="#aJ"/></g><path fill="#3a414a" d="M141 0L90-78 38 0H4l68-98-65-92h35l48 74 47-74h35l-64 92 68 98h-35" id="aQ"/><use transform="matrix(0.06172839506172839,0,0,0.06172839506172839,0,0)" xlink:href="#aQ" id="o"/><g id="p"><use transform="matrix(0.06172839506172839,0,0,0.06172839506172839,0,0)" xlink:href="#aM"/><use transform="matrix(0.06172839506172839,0,0,0.06172839506172839,12.345679012345679,0)" xlink:href="#aI"/><use transform="matrix(0.06172839506172839,0,0,0.06172839506172839,24.691358024691358,0)" xlink:href="#aJ"/></g><path fill="#3a414a" d="M101-234c-31-9-42 10-38 44h38v23H63V0H32v-167H5v-23h27c-7-52 17-82 69-68v24" id="aR"/><path fill="#3a414a" d="M24 0v-261h32V0H24" id="aS"/><g id="q"><use transform="matrix(0.06172839506172839,0,0,0.06172839506172839,0,0)" xlink:href="#aR"/><use transform="matrix(0.06172839506172839,0,0,0.06172839506172839,6.172839506172839,0)" xlink:href="#aM"/><use transform="matrix(0.06172839506172839,0,0,0.06172839506172839,18.51851851851852,0)" xlink:href="#aK"/><use transform="matrix(0.06172839506172839,0,0,0.06172839506172839,23.395061728395063,0)" xlink:href="#aS"/></g><path fill="#3a414a" d="M197 0v-115H63V0H30v-248h33v105h134v-105h34V0h-34" id="aT"/><path fill="#3a414a" d="M194 0L95-120 63-95V0H30v-248h33v124l119-124h40L117-140 236 0h-42" id="aU"/><path fill="#3a414a" d="M233-177c-1 41-23 64-60 70L243 0h-38l-65-103H63V0H30v-248c88 3 205-21 203 71zM63-129c60-2 137 13 137-47 0-61-80-42-137-45v92" id="aV"/><path fill="#3a414a" d="M30-248c87 1 191-15 191 75 0 78-77 80-158 76V0H30v-248zm33 125c57 0 124 11 124-50 0-59-68-47-124-48v98" id="aW"/><path fill="#3a414a" d="M140-251c81 0 123 46 123 126C263-46 219 4 140 4 59 4 17-45 17-125s42-126 123-126zm0 227c63 0 89-41 89-101s-29-99-89-99c-61 0-89 39-89 99S79-25 140-24" id="aX"/><g id="r"><use transform="matrix(0.04320987654320987,0,0,0.04320987654320987,0,0)" xlink:href="#aw"/><use transform="matrix(0.04320987654320987,0,0,0.04320987654320987,11.191358024691356,0)" xlink:href="#aT"/><use transform="matrix(0.04320987654320987,0,0,0.04320987654320987,22.38271604938271,0)" xlink:href="#ac"/><use transform="matrix(0.04320987654320987,0,0,0.04320987654320987,32.75308641975308,0)" xlink:href="#aw"/><use transform="matrix(0.04320987654320987,0,0,0.04320987654320987,43.944444444444436,0)" xlink:href="#aU"/><use transform="matrix(0.04320987654320987,0,0,0.04320987654320987,54.3148148148148,0)" xlink:href="#af"/><use transform="matrix(0.04320987654320987,0,0,0.04320987654320987,62.95679012345678,0)" xlink:href="#aV"/><use transform="matrix(0.04320987654320987,0,0,0.04320987654320987,74.14814814814814,0)" xlink:href="#ac"/><use transform="matrix(0.04320987654320987,0,0,0.04320987654320987,84.5185185185185,0)" xlink:href="#ab"/><use transform="matrix(0.04320987654320987,0,0,0.04320987654320987,94.88888888888887,0)" xlink:href="#aW"/><use transform="matrix(0.04320987654320987,0,0,0.04320987654320987,105.25925925925924,0)" xlink:href="#aX"/><use transform="matrix(0.04320987654320987,0,0,0.04320987654320987,117.358024691358,0)" xlink:href="#aC"/><use transform="matrix(0.04320987654320987,0,0,0.04320987654320987,128.54938271604937,0)" xlink:href="#ab"/><use transform="matrix(0.04320987654320987,0,0,0.04320987654320987,138.91975308641975,0)" xlink:href="#ac"/></g><g id="s"><use transform="matrix(0.06172839506172839,0,0,0.06172839506172839,0,0)" xlink:href="#aw"/><use transform="matrix(0.06172839506172839,0,0,0.06172839506172839,15.987654320987653,0)" xlink:href="#au"/><use transform="matrix(0.06172839506172839,0,0,0.06172839506172839,30.80246913580247,0)" xlink:href="#ad"/><use transform="matrix(0.06172839506172839,0,0,0.06172839506172839,43.148148148148145,0)" xlink:href="#ad"/><use transform="matrix(0.06172839506172839,0,0,0.06172839506172839,55.49382716049382,0)" xlink:href="#af"/><use transform="matrix(0.06172839506172839,0,0,0.06172839506172839,67.8395061728395,0)" xlink:href="#aT"/><use transform="matrix(0.06172839506172839,0,0,0.06172839506172839,83.82716049382717,0)" xlink:href="#ac"/><use transform="matrix(0.06172839506172839,0,0,0.06172839506172839,98.64197530864197,0)" xlink:href="#ad"/><use transform="matrix(0.06172839506172839,0,0,0.06172839506172839,110.98765432098766,0)" xlink:href="#aW"/></g><path fill="#3a414a" d="M30-248c118-7 216 8 213 122C240-48 200 0 122 0H30v-248zM63-27c89 8 146-16 146-99s-60-101-146-95v194" id="aY"/><g id="t"><use transform="matrix(0.06172839506172839,0,0,0.06172839506172839,0,0)" xlink:href="#au"/><use transform="matrix(0.06172839506172839,0,0,0.06172839506172839,13.148148148148147,0)" xlink:href="#ag"/><use transform="matrix(0.06172839506172839,0,0,0.06172839506172839,26.666666666666664,0)" xlink:href="#ag"/><use transform="matrix(0.06172839506172839,0,0,0.06172839506172839,38.51851851851851,0)" xlink:href="#au"/><use transform="matrix(0.06172839506172839,0,0,0.06172839506172839,53.33333333333333,0)" xlink:href="#aw"/><use transform="matrix(0.06172839506172839,0,0,0.06172839506172839,69.32098765432099,0)" xlink:href="#aT"/><use transform="matrix(0.06172839506172839,0,0,0.06172839506172839,85.30864197530865,0)" xlink:href="#af"/><use transform="matrix(0.06172839506172839,0,0,0.06172839506172839,97.65432098765433,0)" xlink:href="#aW"/><use transform="matrix(0.06172839506172839,0,0,0.06172839506172839,110.80246913580247,0)" xlink:href="#au"/><use transform="matrix(0.06172839506172839,0,0,0.06172839506172839,125.61728395061728,0)" xlink:href="#aY"/><use transform="matrix(0.06172839506172839,0,0,0.06172839506172839,141.60493827160494,0)" xlink:href="#ab"/></g><g id="u"><use transform="matrix(0.04938271604938272,0,0,0.04938271604938272,0,0)" xlink:href="#aj"/><use transform="matrix(0.04938271604938272,0,0,0.04938271604938272,9.876543209876544,0)" xlink:href="#ai"/><use transform="matrix(0.04938271604938272,0,0,0.04938271604938272,14.814814814814817,0)" xlink:href="#aj"/><use transform="matrix(0.04938271604938272,0,0,0.04938271604938272,24.69135802469136,0)" xlink:href="#ak"/><use transform="matrix(0.04938271604938272,0,0,0.04938271604938272,34.567901234567906,0)" xlink:href="#al"/><use transform="matrix(0.04938271604938272,0,0,0.04938271604938272,40.44444444444445,0)" xlink:href="#am"/><use transform="matrix(0.04938271604938272,0,0,0.04938271604938272,47.35802469135803,0)" xlink:href="#an"/><use transform="matrix(0.04938271604938272,0,0,0.04938271604938272,58.17283950617284,0)" xlink:href="#ao"/><use transform="matrix(0.04938271604938272,0,0,0.04938271604938272,68.98765432098766,0)" xlink:href="#aj"/><use transform="matrix(0.04938271604938272,0,0,0.04938271604938272,78.8641975308642,0)" xlink:href="#ap"/></g><path fill="#333" d="M114-157C55-157 80-60 75 0H25v-261h50l-1 109c12-26 28-41 61-42 86-1 58 113 63 194h-50c-7-57 23-157-34-157" id="aZ"/><g id="v"><use transform="matrix(0.04938271604938272,0,0,0.04938271604938272,0,0)" xlink:href="#aA"/><use transform="matrix(0.04938271604938272,0,0,0.04938271604938272,9.876543209876544,0)" xlink:href="#al"/><use transform="matrix(0.04938271604938272,0,0,0.04938271604938272,15.753086419753087,0)" xlink:href="#al"/><use transform="matrix(0.04938271604938272,0,0,0.04938271604938272,21.629629629629633,0)" xlink:href="#aA"/><use transform="matrix(0.04938271604938272,0,0,0.04938271604938272,31.506172839506174,0)" xlink:href="#ak"/><use transform="matrix(0.04938271604938272,0,0,0.04938271604938272,41.38271604938272,0)" xlink:href="#aZ"/><use transform="matrix(0.04938271604938272,0,0,0.04938271604938272,52.19753086419754,0)" xlink:href="#aj"/><use transform="matrix(0.04938271604938272,0,0,0.04938271604938272,62.074074074074076,0)" xlink:href="#ao"/></g><path fill="#333" d="M135-194c53 0 70 44 70 98 0 56-19 98-73 100-31 1-45-17-59-34 3 33 2 69 2 105H25l-1-265h48c2 10 0 23 3 31 11-24 29-35 60-35zM114-30c33 0 39-31 40-66 0-38-9-64-40-64-56 0-55 130 0 130" id="ba"/><g id="w"><use transform="matrix(0.04938271604938272,0,0,0.04938271604938272,0,0)" xlink:href="#ba"/><use transform="matrix(0.04938271604938272,0,0,0.04938271604938272,10.814814814814815,0)" xlink:href="#am"/><use transform="matrix(0.04938271604938272,0,0,0.04938271604938272,17.728395061728396,0)" xlink:href="#an"/><use transform="matrix(0.04938271604938272,0,0,0.04938271604938272,28.543209876543205,0)" xlink:href="#ba"/><use transform="matrix(0.04938271604938272,0,0,0.04938271604938272,39.358024691358025,0)" xlink:href="#aj"/><use transform="matrix(0.04938271604938272,0,0,0.04938271604938272,49.23456790123457,0)" xlink:href="#am"/><use transform="matrix(0.04938271604938272,0,0,0.04938271604938272,56.14814814814815,0)" xlink:href="#ai"/><use transform="matrix(0.04938271604938272,0,0,0.04938271604938272,61.086419753086425,0)" xlink:href="#aB"/></g><g id="x"><use transform="matrix(0.04938271604938272,0,0,0.04938271604938272,0,0)" xlink:href="#aq"/><use transform="matrix(0.04938271604938272,0,0,0.04938271604938272,12.790123456790125,0)" xlink:href="#an"/></g><path fill="#333" d="M147 0L96-86 75-71V0H25v-261h50v150l67-79h53l-66 74L201 0h-54" id="bb"/><g id="y"><use transform="matrix(0.04938271604938272,0,0,0.04938271604938272,0,0)" xlink:href="#ap"/><use transform="matrix(0.04938271604938272,0,0,0.04938271604938272,9.876543209876544,0)" xlink:href="#aZ"/><use transform="matrix(0.04938271604938272,0,0,0.04938271604938272,20.69135802469136,0)" xlink:href="#an"/><use transform="matrix(0.04938271604938272,0,0,0.04938271604938272,31.506172839506174,0)" xlink:href="#ak"/><use transform="matrix(0.04938271604938272,0,0,0.04938271604938272,41.38271604938272,0)" xlink:href="#bb"/></g><path fill="#333" d="M128 0H69L1-190h53L99-40l48-150h52" id="bc"/><path fill="#333" d="M25-224v-37h50v37H25zM25 0v-190h50V0H25" id="bd"/><g id="z"><use transform="matrix(0.04938271604938272,0,0,0.04938271604938272,0,0)" xlink:href="#aA"/><use transform="matrix(0.04938271604938272,0,0,0.04938271604938272,9.876543209876544,0)" xlink:href="#ao"/><use transform="matrix(0.04938271604938272,0,0,0.04938271604938272,20.69135802469136,0)" xlink:href="#bc"/><use transform="matrix(0.04938271604938272,0,0,0.04938271604938272,30.567901234567906,0)" xlink:href="#bd"/><use transform="matrix(0.04938271604938272,0,0,0.04938271604938272,35.50617283950618,0)" xlink:href="#ap"/><use transform="matrix(0.04938271604938272,0,0,0.04938271604938272,45.38271604938272,0)" xlink:href="#aj"/><use transform="matrix(0.04938271604938272,0,0,0.04938271604938272,55.25925925925927,0)" xlink:href="#ao"/></g><g id="A"><use transform="matrix(0.06172839506172839,0,0,0.06172839506172839,0,0)" xlink:href="#aA"/><use transform="matrix(0.06172839506172839,0,0,0.06172839506172839,12.345679012345679,0)" xlink:href="#ap"/><use transform="matrix(0.06172839506172839,0,0,0.06172839506172839,24.691358024691358,0)" xlink:href="#aB"/><use transform="matrix(0.06172839506172839,0,0,0.06172839506172839,37.03703703703704,0)" xlink:href="#ap"/><use transform="matrix(0.06172839506172839,0,0,0.06172839506172839,49.382716049382715,0)" xlink:href="#al"/><use transform="matrix(0.06172839506172839,0,0,0.06172839506172839,56.72839506172839,0)" xlink:href="#an"/><use transform="matrix(0.06172839506172839,0,0,0.06172839506172839,70.24691358024691,0)" xlink:href="#ai"/><use transform="matrix(0.06172839506172839,0,0,0.06172839506172839,76.41975308641975,0)" xlink:href="#aj"/></g><g id="B"><use transform="matrix(0.06172839506172839,0,0,0.06172839506172839,0,0)" xlink:href="#aw"/><use transform="matrix(0.06172839506172839,0,0,0.06172839506172839,15.987654320987653,0)" xlink:href="#aW"/><use transform="matrix(0.06172839506172839,0,0,0.06172839506172839,30.80246913580247,0)" xlink:href="#aV"/></g><path fill="#333" d="M169-182c-1-43-94-46-97-3 18 66 151 10 154 114 3 95-165 93-204 36-6-8-10-19-12-30l50-8c3 46 112 56 116 5-17-69-150-10-154-114-4-87 153-88 188-35 5 8 8 18 10 28" id="be"/><g id="C"><use transform="matrix(0.04938271604938272,0,0,0.04938271604938272,0,0)" xlink:href="#be"/><use transform="matrix(0.04938271604938272,0,0,0.04938271604938272,11.851851851851853,0)" xlink:href="#aZ"/><use transform="matrix(0.04938271604938272,0,0,0.04938271604938272,22.666666666666668,0)" xlink:href="#an"/><use transform="matrix(0.04938271604938272,0,0,0.04938271604938272,33.48148148148148,0)" xlink:href="#ak"/><use transform="matrix(0.04938271604938272,0,0,0.04938271604938272,43.358024691358025,0)" xlink:href="#bb"/></g><path fill="#333" d="M199 0l-22-63H83L61 0H9l90-248h61L250 0h-51zm-33-102l-36-108c-10 38-24 72-36 108h72" id="bf"/><g id="D"><use transform="matrix(0.04938271604938272,0,0,0.04938271604938272,0,0)" xlink:href="#bf"/><use transform="matrix(0.04938271604938272,0,0,0.04938271604938272,12.790123456790125,0)" xlink:href="#ao"/><use transform="matrix(0.04938271604938272,0,0,0.04938271604938272,23.60493827160494,0)" xlink:href="#bc"/><use transform="matrix(0.04938271604938272,0,0,0.04938271604938272,33.48148148148148,0)" xlink:href="#bd"/><use transform="matrix(0.04938271604938272,0,0,0.04938271604938272,38.41975308641975,0)" xlink:href="#ap"/><use transform="matrix(0.04938271604938272,0,0,0.04938271604938272,48.2962962962963,0)" xlink:href="#aj"/><use transform="matrix(0.04938271604938272,0,0,0.04938271604938272,58.17283950617284,0)" xlink:href="#ao"/></g><path fill="#3a414a" d="M137 0h-34L2-248h35l83 218 83-218h36" id="bg"/><g id="E"><use transform="matrix(0.06172839506172839,0,0,0.06172839506172839,0,0)" xlink:href="#ab"/><use transform="matrix(0.06172839506172839,0,0,0.06172839506172839,14.814814814814813,0)" xlink:href="#aT"/><use transform="matrix(0.06172839506172839,0,0,0.06172839506172839,30.80246913580247,0)" xlink:href="#aX"/><use transform="matrix(0.06172839506172839,0,0,0.06172839506172839,48.08641975308642,0)" xlink:href="#aw"/><use transform="matrix(0.06172839506172839,0,0,0.06172839506172839,64.07407407407408,0)" xlink:href="#aU"/><use transform="matrix(0.06172839506172839,0,0,0.06172839506172839,78.88888888888889,0)" xlink:href="#af"/><use transform="matrix(0.06172839506172839,0,0,0.06172839506172839,91.23456790123457,0)" xlink:href="#au"/><use transform="matrix(0.06172839506172839,0,0,0.06172839506172839,106.04938271604938,0)" xlink:href="#aY"/><use transform="matrix(0.06172839506172839,0,0,0.06172839506172839,122.03703703703704,0)" xlink:href="#bg"/><use transform="matrix(0.06172839506172839,0,0,0.06172839506172839,136.85185185185185,0)" xlink:href="#aE"/><use transform="matrix(0.06172839506172839,0,0,0.06172839506172839,143.02469135802468,0)" xlink:href="#ab"/><use transform="matrix(0.06172839506172839,0,0,0.06172839506172839,157.8395061728395,0)" xlink:href="#ac"/><use transform="matrix(0.06172839506172839,0,0,0.06172839506172839,172.6543209876543,0)" xlink:href="#aY"/></g><g id="F"><use transform="matrix(0.04320987654320987,0,0,0.04320987654320987,0,0)" xlink:href="#ab"/><use transform="matrix(0.04320987654320987,0,0,0.04320987654320987,10.370370370370368,0)" xlink:href="#aT"/><use transform="matrix(0.04320987654320987,0,0,0.04320987654320987,21.561728395061724,0)" xlink:href="#aX"/><use transform="matrix(0.04320987654320987,0,0,0.04320987654320987,33.66049382716049,0)" xlink:href="#aw"/><use transform="matrix(0.04320987654320987,0,0,0.04320987654320987,44.85185185185184,0)" xlink:href="#aU"/><use transform="matrix(0.04320987654320987,0,0,0.04320987654320987,55.22222222222221,0)" xlink:href="#af"/><use transform="matrix(0.04320987654320987,0,0,0.04320987654320987,63.86419753086418,0)" xlink:href="#aY"/><use transform="matrix(0.04320987654320987,0,0,0.04320987654320987,75.05555555555554,0)" xlink:href="#ac"/><use transform="matrix(0.04320987654320987,0,0,0.04320987654320987,85.42592592592591,0)" xlink:href="#ad"/><use transform="matrix(0.04320987654320987,0,0,0.04320987654320987,94.06790123456788,0)" xlink:href="#aE"/><use transform="matrix(0.04320987654320987,0,0,0.04320987654320987,98.38888888888887,0)" xlink:href="#bg"/><use transform="matrix(0.04320987654320987,0,0,0.04320987654320987,108.75925925925924,0)" xlink:href="#ac"/><use transform="matrix(0.04320987654320987,0,0,0.04320987654320987,119.1296296296296,0)" xlink:href="#aV"/><use transform="matrix(0.04320987654320987,0,0,0.04320987654320987,130.32098765432096,0)" xlink:href="#ac"/><use transform="matrix(0.04320987654320987,0,0,0.04320987654320987,140.69135802469134,0)" xlink:href="#aY"/></g><path fill="#333" d="M121-226c-27-7-43 5-38 36h38v33H83V0H34v-157H6v-33h28c-9-59 32-81 87-68v32" id="bh"/><g id="G"><use transform="matrix(0.04938271604938272,0,0,0.04938271604938272,0,0)" xlink:href="#bf"/><use transform="matrix(0.04938271604938272,0,0,0.04938271604938272,12.790123456790125,0)" xlink:href="#bh"/><use transform="matrix(0.04938271604938272,0,0,0.04938271604938272,18.666666666666668,0)" xlink:href="#al"/><use transform="matrix(0.04938271604938272,0,0,0.04938271604938272,24.543209876543212,0)" xlink:href="#aj"/><use transform="matrix(0.04938271604938272,0,0,0.04938271604938272,34.41975308641976,0)" xlink:href="#am"/></g><g id="H"><use transform="matrix(0.04938271604938272,0,0,0.04938271604938272,0,0)" xlink:href="#an"/><use transform="matrix(0.04938271604938272,0,0,0.04938271604938272,10.814814814814815,0)" xlink:href="#at"/><use transform="matrix(0.04938271604938272,0,0,0.04938271604938272,21.62962962962963,0)" xlink:href="#aj"/></g><g id="I"><use transform="matrix(0.04938271604938272,0,0,0.04938271604938272,0,0)" xlink:href="#ap"/><use transform="matrix(0.04938271604938272,0,0,0.04938271604938272,9.876543209876544,0)" xlink:href="#aZ"/><use transform="matrix(0.04938271604938272,0,0,0.04938271604938272,20.69135802469136,0)" xlink:href="#an"/><use transform="matrix(0.04938271604938272,0,0,0.04938271604938272,31.506172839506174,0)" xlink:href="#ak"/><use transform="matrix(0.04938271604938272,0,0,0.04938271604938272,41.38271604938272,0)" xlink:href="#bb"/></g><g id="J"><use transform="matrix(0.04938271604938272,0,0,0.04938271604938272,0,0)" xlink:href="#ao"/><use transform="matrix(0.04938271604938272,0,0,0.04938271604938272,10.814814814814815,0)" xlink:href="#aj"/><use transform="matrix(0.04938271604938272,0,0,0.04938271604938272,20.69135802469136,0)" xlink:href="#ai"/><use transform="matrix(0.04938271604938272,0,0,0.04938271604938272,25.629629629629633,0)" xlink:href="#bd"/><use transform="matrix(0.04938271604938272,0,0,0.04938271604938272,30.567901234567906,0)" xlink:href="#bc"/><use transform="matrix(0.04938271604938272,0,0,0.04938271604938272,40.44444444444445,0)" xlink:href="#aj"/><use transform="matrix(0.04938271604938272,0,0,0.04938271604938272,50.320987654320994,0)" xlink:href="#am"/><use transform="matrix(0.04938271604938272,0,0,0.04938271604938272,57.23456790123457,0)" xlink:href="#aj"/><use transform="matrix(0.04938271604938272,0,0,0.04938271604938272,67.11111111111111,0)" xlink:href="#ao"/></g><path fill="#333" d="M182-182c0 78-84 86-111 141h115V0H12c-6-101 99-100 120-180 1-22-12-31-33-32-23 0-32 14-35 34l-49-3c5-45 32-70 84-70 51 0 83 22 83 69" id="bi"/><use transform="matrix(0.04938271604938272,0,0,0.04938271604938272,0,0)" xlink:href="#bi" id="K"/><path fill="#333" d="M220-157c-53 9-28 100-34 157h-49v-107c1-27-5-49-29-50C55-147 81-57 75 0H25l-1-190h47c2 12-1 28 3 38 10-53 101-56 108 0 13-22 24-43 59-42 82 1 51 116 57 194h-49v-107c-1-25-5-48-29-50" id="bj"/><path fill="#333" d="M85 4C-2 5 27-109 22-190h50c7 57-23 150 33 157 60-5 35-97 40-157h50l1 190h-47c-2-12 1-28-3-38-12 25-28 42-61 42" id="bk"/><g id="L"><use transform="matrix(0.04938271604938272,0,0,0.04938271604938272,0,0)" xlink:href="#bj"/><use transform="matrix(0.04938271604938272,0,0,0.04938271604938272,15.80246913580247,0)" xlink:href="#bd"/><use transform="matrix(0.04938271604938272,0,0,0.04938271604938272,20.74074074074074,0)" xlink:href="#at"/><use transform="matrix(0.04938271604938272,0,0,0.04938271604938272,31.555555555555557,0)" xlink:href="#bk"/><use transform="matrix(0.04938271604938272,0,0,0.04938271604938272,42.370370370370374,0)" xlink:href="#al"/><use transform="matrix(0.04938271604938272,0,0,0.04938271604938272,48.24691358024692,0)" xlink:href="#aj"/><use transform="matrix(0.04938271604938272,0,0,0.04938271604938272,58.12345679012346,0)" xlink:href="#ap"/></g><g id="M"><use transform="matrix(0.06172839506172839,0,0,0.06172839506172839,0,0)" xlink:href="#ab"/><use transform="matrix(0.06172839506172839,0,0,0.06172839506172839,14.814814814814813,0)" xlink:href="#ag"/><use transform="matrix(0.06172839506172839,0,0,0.06172839506172839,27.901234567901234,0)" xlink:href="#aX"/><use transform="matrix(0.06172839506172839,0,0,0.06172839506172839,45.18518518518518,0)" xlink:href="#aW"/><use transform="matrix(0.06172839506172839,0,0,0.06172839506172839,60,0)" xlink:href="#af"/><use transform="matrix(0.06172839506172839,0,0,0.06172839506172839,72.34567901234568,0)" xlink:href="#aw"/><use transform="matrix(0.06172839506172839,0,0,0.06172839506172839,88.33333333333334,0)" xlink:href="#aW"/><use transform="matrix(0.06172839506172839,0,0,0.06172839506172839,103.14814814814815,0)" xlink:href="#aV"/></g><g id="N"><use transform="matrix(0.04938271604938272,0,0,0.04938271604938272,0,0)" xlink:href="#ay"/><use transform="matrix(0.04938271604938272,0,0,0.04938271604938272,11.851851851851853,0)" xlink:href="#aA"/><use transform="matrix(0.04938271604938272,0,0,0.04938271604938272,21.7283950617284,0)" xlink:href="#al"/><use transform="matrix(0.04938271604938272,0,0,0.04938271604938272,27.604938271604947,0)" xlink:href="#bd"/><use transform="matrix(0.04938271604938272,0,0,0.04938271604938272,32.543209876543216,0)" xlink:href="#aj"/><use transform="matrix(0.04938271604938272,0,0,0.04938271604938272,42.41975308641976,0)" xlink:href="#at"/><use transform="matrix(0.04938271604938272,0,0,0.04938271604938272,53.23456790123457,0)" xlink:href="#al"/></g><path fill="#333" d="M76-54c-1 42 2 86-19 110H24C36 42 46 24 48 0H25v-54h51" id="bl"/><g id="O"><use transform="matrix(0.04938271604938272,0,0,0.04938271604938272,0,0)" xlink:href="#aA"/><use transform="matrix(0.04938271604938272,0,0,0.04938271604938272,9.876543209876544,0)" xlink:href="#ai"/><use transform="matrix(0.04938271604938272,0,0,0.04938271604938272,14.814814814814817,0)" xlink:href="#bd"/><use transform="matrix(0.04938271604938272,0,0,0.04938271604938272,19.75308641975309,0)" xlink:href="#bc"/><use transform="matrix(0.04938271604938272,0,0,0.04938271604938272,29.629629629629633,0)" xlink:href="#aj"/><use transform="matrix(0.04938271604938272,0,0,0.04938271604938272,39.50617283950618,0)" xlink:href="#bl"/></g><g id="P"><use transform="matrix(0.04938271604938272,0,0,0.04938271604938272,0,0)" xlink:href="#ba"/><use transform="matrix(0.04938271604938272,0,0,0.04938271604938272,10.814814814814815,0)" xlink:href="#an"/><use transform="matrix(0.04938271604938272,0,0,0.04938271604938272,21.62962962962963,0)" xlink:href="#az"/><use transform="matrix(0.04938271604938272,0,0,0.04938271604938272,35.45679012345679,0)" xlink:href="#aj"/><use transform="matrix(0.04938271604938272,0,0,0.04938271604938272,45.333333333333336,0)" xlink:href="#am"/><use transform="matrix(0.04938271604938272,0,0,0.04938271604938272,52.24691358024692,0)" xlink:href="#aj"/><use transform="matrix(0.04938271604938272,0,0,0.04938271604938272,62.12345679012346,0)" xlink:href="#ao"/></g><g id="Q"><use transform="matrix(0.04938271604938272,0,0,0.04938271604938272,0,0)" xlink:href="#an"/><use transform="matrix(0.04938271604938272,0,0,0.04938271604938272,10.814814814814815,0)" xlink:href="#bh"/><use transform="matrix(0.04938271604938272,0,0,0.04938271604938272,16.691358024691358,0)" xlink:href="#bh"/><use transform="matrix(0.04938271604938272,0,0,0.04938271604938272,22.567901234567902,0)" xlink:href="#bl"/></g><g id="R"><use transform="matrix(0.04938271604938272,0,0,0.04938271604938272,0,0)" xlink:href="#ao"/><use transform="matrix(0.04938271604938272,0,0,0.04938271604938272,10.814814814814815,0)" xlink:href="#aj"/><use transform="matrix(0.04938271604938272,0,0,0.04938271604938272,20.69135802469136,0)" xlink:href="#aA"/><use transform="matrix(0.04938271604938272,0,0,0.04938271604938272,30.567901234567906,0)" xlink:href="#ao"/></g><path fill="#333" d="M135-194c52 0 70 43 70 98 0 56-19 99-73 100-30 1-46-15-58-35L72 0H24l1-261h50v104c11-23 29-37 60-37zM114-30c31 0 40-27 40-66 0-37-7-63-39-63s-41 28-41 65c0 36 8 64 40 64" id="bm"/><g id="S"><use transform="matrix(0.04938271604938272,0,0,0.04938271604938272,0,0)" xlink:href="#bm"/><use transform="matrix(0.04938271604938272,0,0,0.04938271604938272,10.814814814814815,0)" xlink:href="#aA"/><use transform="matrix(0.04938271604938272,0,0,0.04938271604938272,20.69135802469136,0)" xlink:href="#al"/><use transform="matrix(0.04938271604938272,0,0,0.04938271604938272,26.567901234567902,0)" xlink:href="#al"/><use transform="matrix(0.04938271604938272,0,0,0.04938271604938272,32.44444444444445,0)" xlink:href="#aj"/><use transform="matrix(0.04938271604938272,0,0,0.04938271604938272,42.320987654320994,0)" xlink:href="#am"/><use transform="matrix(0.04938271604938272,0,0,0.04938271604938272,49.23456790123458,0)" xlink:href="#aB"/></g><path fill="#3a414a" d="M100-194c62-1 85 37 85 99 1 63-27 99-86 99S16-35 15-95c0-66 28-99 85-99zM99-20c44 1 53-31 53-75 0-43-8-75-51-75s-53 32-53 75 10 74 51 75" id="bn"/><path fill="#3a414a" d="M135-143c-3-34-86-38-87 0 15 53 115 12 119 90S17 21 10-45l28-5c4 36 97 45 98 0-10-56-113-15-118-90-4-57 82-63 122-42 12 7 21 19 24 35" id="bo"/><g id="T"><use transform="matrix(0.06172839506172839,0,0,0.06172839506172839,0,0)" xlink:href="#ac"/><use transform="matrix(0.06172839506172839,0,0,0.06172839506172839,14.814814814814813,0)" xlink:href="#aS"/><use transform="matrix(0.06172839506172839,0,0,0.06172839506172839,19.691358024691354,0)" xlink:href="#aO"/><use transform="matrix(0.06172839506172839,0,0,0.06172839506172839,32.03703703703703,0)" xlink:href="#aL"/><use transform="matrix(0.06172839506172839,0,0,0.06172839506172839,43.14814814814814,0)" xlink:href="#aN"/><use transform="matrix(0.06172839506172839,0,0,0.06172839506172839,49.32098765432098,0)" xlink:href="#aP"/><use transform="matrix(0.06172839506172839,0,0,0.06172839506172839,56.66666666666666,0)" xlink:href="#bn"/><use transform="matrix(0.06172839506172839,0,0,0.06172839506172839,69.01234567901234,0)" xlink:href="#aJ"/><use transform="matrix(0.06172839506172839,0,0,0.06172839506172839,81.35802469135803,0)" xlink:href="#aO"/><use transform="matrix(0.06172839506172839,0,0,0.06172839506172839,93.70370370370371,0)" xlink:href="#bo"/></g><path fill="#3a414a" d="M106-169C34-169 62-67 57 0H25v-261h32l-1 103c12-21 28-36 61-36 89 0 53 116 60 194h-32v-121c2-32-8-49-39-48" id="bp"/><g id="U"><use transform="matrix(0.06172839506172839,0,0,0.06172839506172839,0,0)" xlink:href="#au"/><use transform="matrix(0.06172839506172839,0,0,0.06172839506172839,14.814814814814813,0)" xlink:href="#aN"/><use transform="matrix(0.06172839506172839,0,0,0.06172839506172839,20.98765432098765,0)" xlink:href="#aN"/><use transform="matrix(0.06172839506172839,0,0,0.06172839506172839,27.16049382716049,0)" xlink:href="#aM"/><use transform="matrix(0.06172839506172839,0,0,0.06172839506172839,39.50617283950617,0)" xlink:href="#aL"/><use transform="matrix(0.06172839506172839,0,0,0.06172839506172839,50.61728395061728,0)" xlink:href="#bp"/><use transform="matrix(0.06172839506172839,0,0,0.06172839506172839,62.962962962962955,0)" xlink:href="#aO"/><use transform="matrix(0.06172839506172839,0,0,0.06172839506172839,75.30864197530863,0)" xlink:href="#aJ"/></g><g id="V"><use transform="matrix(0.06172839506172839,0,0,0.06172839506172839,0,0)" xlink:href="#ab"/><use transform="matrix(0.06172839506172839,0,0,0.06172839506172839,14.814814814814813,0)" xlink:href="#ag"/><use transform="matrix(0.06172839506172839,0,0,0.06172839506172839,26.666666666666664,0)" xlink:href="#au"/><use transform="matrix(0.06172839506172839,0,0,0.06172839506172839,41.48148148148148,0)" xlink:href="#aC"/><use transform="matrix(0.06172839506172839,0,0,0.06172839506172839,57.46913580246913,0)" xlink:href="#aY"/><use transform="matrix(0.06172839506172839,0,0,0.06172839506172839,73.45679012345678,0)" xlink:href="#af"/><use transform="matrix(0.06172839506172839,0,0,0.06172839506172839,85.80246913580247,0)" xlink:href="#aw"/><use transform="matrix(0.06172839506172839,0,0,0.06172839506172839,101.79012345679013,0)" xlink:href="#ad"/><use transform="matrix(0.06172839506172839,0,0,0.06172839506172839,114.13580246913581,0)" xlink:href="#ac"/><use transform="matrix(0.06172839506172839,0,0,0.06172839506172839,128.95061728395063,0)" xlink:href="#au"/><use transform="matrix(0.06172839506172839,0,0,0.06172839506172839,143.76543209876544,0)" xlink:href="#aV"/></g><g id="W"><use transform="matrix(0.06172839506172839,0,0,0.06172839506172839,0,0)" xlink:href="#aC"/><use transform="matrix(0.06172839506172839,0,0,0.06172839506172839,15.987654320987653,0)" xlink:href="#aX"/><use transform="matrix(0.06172839506172839,0,0,0.06172839506172839,33.2716049382716,0)" xlink:href="#af"/><use transform="matrix(0.06172839506172839,0,0,0.06172839506172839,45.61728395061728,0)" xlink:href="#ab"/><use transform="matrix(0.06172839506172839,0,0,0.06172839506172839,60.43209876543209,0)" xlink:href="#aT"/><use transform="matrix(0.06172839506172839,0,0,0.06172839506172839,76.41975308641975,0)" xlink:href="#aX"/><use transform="matrix(0.06172839506172839,0,0,0.06172839506172839,93.7037037037037,0)" xlink:href="#aw"/><use transform="matrix(0.06172839506172839,0,0,0.06172839506172839,109.69135802469135,0)" xlink:href="#aU"/><use transform="matrix(0.06172839506172839,0,0,0.06172839506172839,124.50617283950616,0)" xlink:href="#af"/><use transform="matrix(0.06172839506172839,0,0,0.06172839506172839,136.85185185185185,0)" xlink:href="#au"/><use transform="matrix(0.06172839506172839,0,0,0.06172839506172839,151.66666666666666,0)" xlink:href="#aY"/><use transform="matrix(0.06172839506172839,0,0,0.06172839506172839,167.6543209876543,0)" xlink:href="#bg"/><use transform="matrix(0.06172839506172839,0,0,0.06172839506172839,182.4691358024691,0)" xlink:href="#aE"/><use transform="matrix(0.06172839506172839,0,0,0.06172839506172839,188.64197530864195,0)" xlink:href="#ab"/><use transform="matrix(0.06172839506172839,0,0,0.06172839506172839,203.45679012345676,0)" xlink:href="#ac"/><use transform="matrix(0.06172839506172839,0,0,0.06172839506172839,218.27160493827157,0)" xlink:href="#aY"/></g><path fill="#3a414a" d="M160-131c35 5 61 23 61 61C221 17 115-2 30 0v-248c76 3 177-17 177 60 0 33-19 50-47 57zm-97-11c50-1 110 9 110-42 0-47-63-36-110-37v79zm0 115c55-2 124 14 124-45 0-56-70-42-124-44v89" id="bq"/><g id="X"><use transform="matrix(0.06172839506172839,0,0,0.06172839506172839,0,0)" xlink:href="#au"/><use transform="matrix(0.06172839506172839,0,0,0.06172839506172839,14.814814814814813,0)" xlink:href="#bq"/><use transform="matrix(0.06172839506172839,0,0,0.06172839506172839,29.629629629629626,0)" xlink:href="#aX"/><use transform="matrix(0.06172839506172839,0,0,0.06172839506172839,46.913580246913575,0)" xlink:href="#aV"/><use transform="matrix(0.06172839506172839,0,0,0.06172839506172839,62.469135802469125,0)" xlink:href="#ag"/></g><g id="Y"><use transform="matrix(0.06172839506172839,0,0,0.06172839506172839,0,0)" xlink:href="#ba"/><use transform="matrix(0.06172839506172839,0,0,0.06172839506172839,13.518518518518517,0)" xlink:href="#aA"/><use transform="matrix(0.06172839506172839,0,0,0.06172839506172839,25.864197530864196,0)" xlink:href="#al"/><use transform="matrix(0.06172839506172839,0,0,0.06172839506172839,33.20987654320987,0)" xlink:href="#bd"/><use transform="matrix(0.06172839506172839,0,0,0.06172839506172839,39.382716049382715,0)" xlink:href="#aj"/><use transform="matrix(0.06172839506172839,0,0,0.06172839506172839,51.72839506172839,0)" xlink:href="#at"/><use transform="matrix(0.06172839506172839,0,0,0.06172839506172839,65.24691358024691,0)" xlink:href="#al"/></g><g id="Z"><use transform="matrix(0.06172839506172839,0,0,0.06172839506172839,0,0)" xlink:href="#bm"/><use transform="matrix(0.06172839506172839,0,0,0.06172839506172839,13.518518518518517,0)" xlink:href="#aj"/><use transform="matrix(0.06172839506172839,0,0,0.06172839506172839,25.864197530864196,0)" xlink:href="#ak"/><use transform="matrix(0.06172839506172839,0,0,0.06172839506172839,38.20987654320987,0)" xlink:href="#an"/><use transform="matrix(0.06172839506172839,0,0,0.06172839506172839,51.72839506172839,0)" xlink:href="#bj"/><use transform="matrix(0.06172839506172839,0,0,0.06172839506172839,71.48148148148148,0)" xlink:href="#aj"/><use transform="matrix(0.06172839506172839,0,0,0.06172839506172839,83.82716049382717,0)" xlink:href="#ap"/></g><g id="aa"><use transform="matrix(0.06172839506172839,0,0,0.06172839506172839,0,0)" xlink:href="#aZ"/><use transform="matrix(0.06172839506172839,0,0,0.06172839506172839,13.518518518518517,0)" xlink:href="#aj"/><use transform="matrix(0.06172839506172839,0,0,0.06172839506172839,25.864197530864196,0)" xlink:href="#aA"/><use transform="matrix(0.06172839506172839,0,0,0.06172839506172839,38.20987654320987,0)" xlink:href="#ai"/><use transform="matrix(0.06172839506172839,0,0,0.06172839506172839,44.382716049382715,0)" xlink:href="#al"/><use transform="matrix(0.06172839506172839,0,0,0.06172839506172839,51.72839506172839,0)" xlink:href="#aZ"/><use transform="matrix(0.06172839506172839,0,0,0.06172839506172839,65.24691358024691,0)" xlink:href="#aB"/></g></defs></g></svg>